<svg xmlns="http://www.w3.org/2000/svg" width="16" height="16" viewBox="0 0 16 16" fill="currentColor">
  <g transform="translate(8 8)">
    <path d="M-1.4 -1.4 C-4 -3 -5.5 -6 -2.5 -7.2 C0.8 -7.2 1.4 -4.2 1.4 -1.4 Z"/>
    <path d="M-1.4 -1.4 C-4 -3 -5.5 -6 -2.5 -7.2 C0.8 -7.2 1.4 -4.2 1.4 -1.4 Z" transform="rotate(90)"/>
    <path d="M-1.4 -1.4 C-4 -3 -5.5 -6 -2.5 -7.2 C0.8 -7.2 1.4 -4.2 1.4 -1.4 Z" transform="rotate(180)"/>
    <path d="M-1.4 -1.4 C-4 -3 -5.5 -6 -2.5 -7.2 C0.8 -7.2 1.4 -4.2 1.4 -1.4 Z" transform="rotate(270)"/>
    <circle r="1.6"/>
  </g>
</svg>
