<svg xmlns="http://www.w3.org/2000/svg" width="16" height="16" viewBox="0 0 16 16" fill="currentColor">
  <path fill-rule="evenodd" d="M7.25 1.25a6 6 0 1 0 5.95 6.75H15.5v-1.5h-2.3A6 6 0 0 0 7.25 1.25zm0 1.75a4.25 4.25 0 1 1 0 8.5 4.25 4.25 0 0 1 0-8.5z"/>
  <g transform="translate(7.25 7.25)">
    <path d="M0 -2.6 C1.45 -2.6 2.6 -1.45 2.6 0 L1.3 0 C1.3 -0.72 0.72 -1.3 0 -1.3 Z"/>
    <path d="M0 -2.6 C1.45 -2.6 2.6 -1.45 2.6 0 L1.3 0 C1.3 -0.72 0.72 -1.3 0 -1.3 Z" transform="rotate(120)"/>
    <path d="M0 -2.6 C1.45 -2.6 2.6 -1.45 2.6 0 L1.3 0 C1.3 -0.72 0.72 -1.3 0 -1.3 Z" transform="rotate(240)"/>
    <circle r="0.7"/>
  </g>
</svg>
